<svg xmlns="http://www.w3.org/2000/svg" viewBox="0 0 640 400" width="640" height="400" font-family="Inter, sans-serif">
  <defs>
    <linearGradient id="g" x1="0" y1="0" x2="1" y2="1">
      <stop offset="0" stop-color="#6c8cff"/><stop offset="1" stop-color="#28e0c8"/>
    </linearGradient>
  </defs>
  <rect width="640" height="400" rx="16" fill="#0e1530"/>
  <!-- top bar -->
  <rect x="0" y="0" width="640" height="48" rx="16" fill="#161f3d"/>
  <rect x="0" y="32" width="640" height="16" fill="#161f3d"/>
  <circle cx="22" cy="24" r="5" fill="#ff6b6b"/><circle cx="40" cy="24" r="5" fill="#ffd166"/><circle cx="58" cy="24" r="5" fill="#28e0c8"/>
  <text x="84" y="29" fill="#9aa6c4" font-size="13" font-weight="600">Vexor · Overview</text>
  <!-- stat cards -->
  <g>
    <rect x="20" y="68" width="140" height="72" rx="12" fill="#161f3d"/>
    <text x="36" y="96" fill="#9aa6c4" font-size="12">Hosts up</text>
    <text x="36" y="124" fill="#28e0c8" font-size="26" font-weight="800">128</text>
    <rect x="176" y="68" width="140" height="72" rx="12" fill="#161f3d"/>
    <text x="192" y="96" fill="#9aa6c4" font-size="12">Warnings</text>
    <text x="192" y="124" fill="#ffd166" font-size="26" font-weight="800">4</text>
    <rect x="332" y="68" width="140" height="72" rx="12" fill="#161f3d"/>
    <text x="348" y="96" fill="#9aa6c4" font-size="12">Critical</text>
    <text x="348" y="124" fill="#ff6b6b" font-size="26" font-weight="800">1</text>
    <rect x="488" y="68" width="132" height="72" rx="12" fill="#161f3d"/>
    <text x="504" y="96" fill="#9aa6c4" font-size="12">SLA</text>
    <text x="504" y="124" fill="#6c8cff" font-size="26" font-weight="800">99.9%</text>
  </g>
  <!-- chart -->
  <rect x="20" y="160" width="380" height="216" rx="12" fill="#161f3d"/>
  <text x="36" y="186" fill="#e7ecf5" font-size="13" font-weight="600">CPU / Latency (24h)</text>
  <polyline points="36,330 80,300 120,312 164,260 208,278 252,228 296,250 340,210 384,232"
    fill="none" stroke="url(#g)" stroke-width="3" stroke-linecap="round" stroke-linejoin="round"/>
  <polyline points="36,352 80,340 120,346 164,322 208,332 252,306 296,318 340,300 384,312"
    fill="none" stroke="#6c8cff" stroke-width="2" opacity=".5" stroke-linecap="round" stroke-linejoin="round"/>
  <!-- host list -->
  <rect x="412" y="160" width="208" height="216" rx="12" fill="#161f3d"/>
  <text x="428" y="186" fill="#e7ecf5" font-size="13" font-weight="600">Hosts</text>
  <g font-size="12" fill="#cdd5ea">
    <circle cx="434" cy="212" r="4" fill="#28e0c8"/><text x="448" y="216">web-01</text>
    <circle cx="434" cy="240" r="4" fill="#28e0c8"/><text x="448" y="244">db-primary</text>
    <circle cx="434" cy="268" r="4" fill="#ffd166"/><text x="448" y="272">app-03</text>
    <circle cx="434" cy="296" r="4" fill="#28e0c8"/><text x="448" y="300">mail-01</text>
    <circle cx="434" cy="324" r="4" fill="#ff6b6b"/><text x="448" y="328">cache-02</text>
    <circle cx="434" cy="352" r="4" fill="#28e0c8"/><text x="448" y="356">fw-edge</text>
  </g>
</svg>
