<svg xmlns="http://www.w3.org/2000/svg" viewBox="0 0 640 400" width="640" height="400" font-family="Inter, sans-serif">
  <defs>
    <linearGradient id="g3" x1="0" y1="0" x2="1" y2="0">
      <stop offset="0" stop-color="#6c8cff"/><stop offset="1" stop-color="#28e0c8"/>
    </linearGradient>
  </defs>
  <rect width="640" height="400" rx="16" fill="#0e1530"/>
  <rect x="0" y="0" width="640" height="48" rx="16" fill="#161f3d"/>
  <rect x="0" y="32" width="640" height="16" fill="#161f3d"/>
  <text x="24" y="29" fill="#9aa6c4" font-size="13" font-weight="600">SLA report · Last 30 days</text>
  <!-- big number -->
  <text x="24" y="104" fill="#9aa6c4" font-size="13">Overall availability</text>
  <text x="24" y="146" fill="#28e0c8" font-size="40" font-weight="800">99.94%</text>
  <text x="190" y="146" fill="#9aa6c4" font-size="13">Target 99.9% · ✓ met</text>
  <!-- bars -->
  <g font-size="12" fill="#cdd5ea">
    <text x="24" y="196">web-01</text>
    <rect x="160" y="186" width="436" height="12" rx="6" fill="#1c2747"/>
    <rect x="160" y="186" width="432" height="12" rx="6" fill="url(#g3)"/>
    <text x="600" y="196" fill="#28e0c8" text-anchor="end">100%</text>

    <text x="24" y="232">db-primary</text>
    <rect x="160" y="222" width="436" height="12" rx="6" fill="#1c2747"/>
    <rect x="160" y="222" width="428" height="12" rx="6" fill="url(#g3)"/>
    <text x="600" y="232" fill="#28e0c8" text-anchor="end">99.9%</text>

    <text x="24" y="268">app-03</text>
    <rect x="160" y="258" width="436" height="12" rx="6" fill="#1c2747"/>
    <rect x="160" y="258" width="402" height="12" rx="6" fill="url(#g3)"/>
    <text x="600" y="268" fill="#ffd166" text-anchor="end">99.2%</text>

    <text x="24" y="304">mail-01</text>
    <rect x="160" y="294" width="436" height="12" rx="6" fill="#1c2747"/>
    <rect x="160" y="294" width="430" height="12" rx="6" fill="url(#g3)"/>
    <text x="600" y="304" fill="#28e0c8" text-anchor="end">99.95%</text>

    <text x="24" y="340">cache-02</text>
    <rect x="160" y="330" width="436" height="12" rx="6" fill="#1c2747"/>
    <rect x="160" y="330" width="372" height="12" rx="6" fill="url(#g3)"/>
    <text x="600" y="340" fill="#ff6b6b" text-anchor="end">98.4%</text>
  </g>
  <rect x="24" y="362" width="592" height="22" rx="8" fill="#161f3d"/>
  <text x="40" y="377" fill="#9aa6c4" font-size="12">Export: PDF · CSV   ·   Scheduled email: monthly</text>
</svg>
